<?xml version="1.0" encoding="UTF-8" standalone="no"?>
<!DOCTYPE svg PUBLIC "-//W3C//DTD SVG 1.0//EN" "http://www.w3.org/TR/2001/PR-SVG-20010719/DTD/svg10.dtd">
<svg width="26cm" height="79cm" viewBox="14 -1115 513 1574" xmlns="http://www.w3.org/2000/svg" xmlns:xlink="http://www.w3.org/1999/xlink">
  <g>
    <rect style="fill: #ffffff" x="100.899" y="-1113.65" width="425.8" height="28"/>
    <rect style="fill: none; fill-opacity:0; stroke-width: 2; stroke: #000000" x="100.899" y="-1113.65" width="425.8" height="28"/>
    <text font-size="16" style="fill: #000000;text-anchor:middle;font-family:sans-serif;font-style:normal;font-weight:700" x="313.799" y="-1094.65">class Preloader (simplified)</text>
    <rect style="fill: #ffffff" x="100.899" y="-1085.65" width="425.8" height="8"/>
    <rect style="fill: none; fill-opacity:0; stroke-width: 2; stroke: #000000" x="100.899" y="-1085.65" width="425.8" height="8"/>
    <rect style="fill: #ffffff" x="100.899" y="-1077.65" width="425.8" height="100"/>
    <rect style="fill: none; fill-opacity:0; stroke-width: 2; stroke: #000000" x="100.899" y="-1077.65" width="425.8" height="100"/>
    <text font-size="12.8" style="fill: #000000;text-anchor:start;font-family:monospace;font-style:normal;font-weight:normal" x="103.899" y="-1063.65">+constructor(callback:function)</text>
    <text font-size="12.8" style="fill: #000000;text-anchor:start;font-family:monospace;font-style:normal;font-weight:normal" x="103.899" y="-1047.65">+config(callback:function,enableLog:boolean,</text>
    <text font-size="12.8" style="fill: #000000;text-anchor:start;font-family:monospace;font-style:normal;font-weight:normal" x="103.899" y="-1031.65">        activateCondition:string,</text>
    <text font-size="12.8" style="fill: #000000;text-anchor:start;font-family:monospace;font-style:normal;font-weight:normal" x="103.899" y="-1015.65">        datasetToActivate:Array{string},</text>
    <text font-size="12.8" style="fill: #000000;text-anchor:start;font-family:monospace;font-style:normal;font-weight:normal" x="103.899" y="-999.648">        urlsSource:Array{String}|Document|HTMLElement)</text>
    <text font-size="12.8" style="fill: #000000;text-anchor:start;font-family:monospace;font-style:normal;font-weight:normal" x="103.899" y="-983.648">+start()</text>
  </g>
  <g>
    <ellipse style="fill: #ffffff" cx="419.225" cy="-830" rx="54.225" ry="20"/>
    <ellipse style="fill: none; fill-opacity:0; stroke-width: 2; stroke: #000000" cx="419.225" cy="-830" rx="54.225" ry="20"/>
    <text font-size="12.8" style="fill: #000000;text-anchor:middle;font-family:sans-serif;font-style:normal;font-weight:normal" x="419.225" y="-826.1">
      <tspan x="419.225" y="-826.1">configure</tspan>
    </text>
  </g>
  <ellipse style="fill: #000000" cx="315.081" cy="-952.162" rx="10" ry="10"/>
  <g>
    <polyline style="fill: none; fill-opacity:0; stroke-width: 2; stroke: #000000" points="315.081,-941.157 315.081,-920.578 315.098,-920.578 315.098,-904.472 "/>
    <polyline style="fill: none; fill-opacity:0; stroke-width: 2; stroke: #000000" points="310.098,-912.236 315.098,-902.236 320.098,-912.236 "/>
  </g>
  <g>
    <polyline style="fill: none; fill-opacity:0; stroke-width: 2; stroke: #000000" points="254.498,-881 212.5,-881 212.5,-805.477 "/>
    <polyline style="fill: none; fill-opacity:0; stroke-width: 2; stroke: #000000" points="207.5,-813.241 212.5,-803.241 217.5,-813.241 "/>
  </g>
  <g>
    <polyline style="fill: none; fill-opacity:0; stroke-width: 2; stroke: #000000" points="375.698,-881 419.225,-881 419.225,-854.472 "/>
    <polyline style="fill: none; fill-opacity:0; stroke-width: 2; stroke: #000000" points="414.225,-862.236 419.225,-852.236 424.225,-862.236 "/>
  </g>
  <g>
    <ellipse style="fill: #ffffff" cx="212.5" cy="-780" rx="32.5" ry="20"/>
    <ellipse style="fill: none; fill-opacity:0; stroke-width: 2; stroke: #000000" cx="212.5" cy="-780" rx="32.5" ry="20"/>
    <text font-size="12.8" style="fill: #000000;text-anchor:middle;font-family:sans-serif;font-style:normal;font-weight:normal" x="212.5" y="-776.1">
      <tspan x="212.5" y="-776.1">start</tspan>
    </text>
  </g>
  <g>
    <polyline style="fill: none; fill-opacity:0; stroke-width: 2; stroke: #000000" points="419.225,-810 419.225,-789.585 418.749,-789.585 418.749,-773.642 "/>
    <polyline style="fill: none; fill-opacity:0; stroke-width: 2; stroke: #000000" points="413.749,-781.406 418.749,-771.406 423.749,-781.406 "/>
  </g>
  <g>
    <rect style="fill: #ffffff" x="271.178" y="-516.542" width="97.65" height="36" rx="20" ry="20"/>
    <rect style="fill: none; fill-opacity:0; stroke-width: 2; stroke: #000000" x="271.178" y="-516.542" width="97.65" height="36" rx="20" ry="20"/>
    <text font-size="12.8" style="fill: #000000;text-anchor:middle;font-family:sans-serif;font-style:normal;font-weight:normal" x="320.003" y="-494.642">
      <tspan x="320.003" y="-494.642">show loader</tspan>
    </text>
  </g>
  <g>
    <polyline style="fill: none; fill-opacity:0; stroke-width: 2; stroke: #000000" points="212.5,-758.999 212.5,-706.511 320,-706.511 320,-680.937 "/>
    <polyline style="fill: none; fill-opacity:0; stroke-width: 2; stroke: #000000" points="315,-688.701 320,-678.701 325,-688.701 "/>
  </g>
  <g>
    <polyline style="fill: none; fill-opacity:0; stroke-width: 2; stroke: #000000" points="418.749,-731.17 418.749,-706.511 320,-706.511 320,-680.937 "/>
    <polyline style="fill: none; fill-opacity:0; stroke-width: 2; stroke: #000000" points="315,-688.701 320,-678.701 325,-688.701 "/>
  </g>
  <g>
    <rect style="fill: #ffffff" x="179.083" y="-286.071" width="282.85" height="36" rx="20" ry="20"/>
    <rect style="fill: none; fill-opacity:0; stroke-width: 2; stroke: #000000" x="179.083" y="-286.071" width="282.85" height="36" rx="20" ry="20"/>
    <text font-size="12.8" style="fill: #000000;text-anchor:middle;font-family:sans-serif;font-style:normal;font-weight:normal" x="320.508" y="-264.171">
      <tspan x="320.508" y="-264.171">downloading resources to browser cache</tspan>
    </text>
  </g>
  <g>
    <polygon style="fill: #ffffff" points="211.004,-60.174 231.004,-80.174 251.004,-60.174 231.004,-40.174 "/>
    <polygon style="fill: none; fill-opacity:0; stroke-width: 2; stroke: #000000" points="211.004,-60.174 231.004,-80.174 251.004,-60.174 231.004,-40.174 "/>
  </g>
  <text font-size="12.8" style="fill: #000000;text-anchor:start;font-family:sans-serif;font-style:normal;font-weight:normal" x="23.668" y="-87.162">
    <tspan x="23.668" y="-87.162">is resource with datasetName</tspan>
    <tspan x="23.668" y="-71.162">present in datasetToActivate ?</tspan>
  </text>
  <text font-size="12.8" style="fill: #000000;text-anchor:start;font-family:sans-serif;font-style:normal;font-weight:normal" x="239.083" y="-25.502">
    <tspan x="239.083" y="-25.502">no</tspan>
  </text>
  <text font-size="12.8" style="fill: #000000;text-anchor:start;font-family:sans-serif;font-style:normal;font-weight:normal" x="164.585" y="-48.253">
    <tspan x="164.585" y="-48.253">yes</tspan>
  </text>
  <text font-size="12.8" style="fill: #000000;text-anchor:start;font-family:sans-serif;font-style:normal;font-weight:normal" x="258.751" y="-173.332">
    <tspan x="258.751" y="-173.332"></tspan>
  </text>
  <g>
    <rect style="fill: #ffffff" x="257.751" y="-208.498" width="125.7" height="36" rx="10" ry="10"/>
    <rect style="fill: none; fill-opacity:0; stroke-width: 2; stroke: #000000" x="257.751" y="-208.498" width="125.7" height="36" rx="10" ry="10"/>
    <text font-size="12.8" style="fill: #000000;text-anchor:middle;font-family:sans-serif;font-style:normal;font-weight:normal" x="320.601" y="-186.598">
      <tspan x="320.601" y="-186.598">resource cashed</tspan>
    </text>
  </g>
  <g>
    <polygon style="fill: #ffffff" points="300.365,-112 320.365,-132 340.365,-112 320.365,-92 "/>
    <polygon style="fill: none; fill-opacity:0; stroke-width: 2; stroke: #000000" points="300.365,-112 320.365,-132 340.365,-112 320.365,-92 "/>
  </g>
  <text font-size="12.8" style="fill: #000000;text-anchor:start;font-family:sans-serif;font-style:normal;font-weight:normal" x="329.192" y="28.4852">
    <tspan x="329.192" y="28.4852">are all resources cached ?</tspan>
  </text>
  <g>
    <polyline style="fill: none; fill-opacity:0; stroke-width: 2; stroke: #000000" points="340.541,47.668 500,47.668 500,-268.071 466.405,-268.071 "/>
    <polyline style="fill: none; fill-opacity:0; stroke-width: 2; stroke: #000000" points="474.169,-273.071 464.169,-268.071 474.169,-263.071 "/>
  </g>
  <g>
    <rect style="fill: #ffffff" x="226.419" y="108.822" width="187.9" height="84" rx="20" ry="20"/>
    <rect style="fill: none; fill-opacity:0; stroke-width: 2; stroke: #000000" x="226.419" y="108.822" width="187.9" height="84" rx="20" ry="20"/>
    <text font-size="12.8" style="fill: #000000;text-anchor:middle;font-family:sans-serif;font-style:normal;font-weight:normal" x="320.369" y="130.722">
      <tspan x="320.369" y="130.722">activate all resources</tspan>
      <tspan x="320.369" y="146.722">except those with</tspan>
      <tspan x="320.369" y="162.722">data-cache attribute,</tspan>
      <tspan x="320.369" y="178.722">remove dataset attributes</tspan>
    </text>
  </g>
  <text font-size="12.8" style="fill: #000000;text-anchor:start;font-family:sans-serif;font-style:normal;font-weight:normal" x="289.17" y="80">
    <tspan x="289.17" y="80">yes</tspan>
  </text>
  <text font-size="12.8" style="fill: #000000;text-anchor:start;font-family:sans-serif;font-style:normal;font-weight:normal" x="345.751" y="63.668">
    <tspan x="345.751" y="63.668">no</tspan>
  </text>
  <text font-size="12.8" style="fill: #000000;text-anchor:start;font-family:sans-serif;font-style:normal;font-weight:normal" x="344.243" y="-120">
    <tspan x="344.243" y="-120">is activateCondition</tspan>
    <tspan x="344.243" y="-104">          true?</tspan>
  </text>
  <text font-size="12.8" style="fill: #000000;text-anchor:start;font-family:sans-serif;font-style:normal;font-weight:normal" x="259.826" y="-118.166">
    <tspan x="259.826" y="-118.166">yes</tspan>
  </text>
  <g>
    <polygon style="fill: #ffffff" points="300.541,47.668 320.541,27.668 340.541,47.668 320.541,67.668 "/>
    <polygon style="fill: none; fill-opacity:0; stroke-width: 2; stroke: #000000" points="300.541,47.668 320.541,27.668 340.541,47.668 320.541,67.668 "/>
  </g>
  <text font-size="12.8" style="fill: #000000;text-anchor:start;font-family:sans-serif;font-style:normal;font-weight:normal" x="300" y="-72.664">
    <tspan x="300" y="-72.664">no</tspan>
  </text>
  <g>
    <polyline style="fill: none; fill-opacity:0; stroke-width: 2; stroke: #000000" points="211.004,-60.174 170,-60.174 170,-60 107.35,-60 107.35,-40.8041 "/>
    <polyline style="fill: none; fill-opacity:0; stroke-width: 2; stroke: #000000" points="102.35,-48.5681 107.35,-38.5681 112.35,-48.5681 "/>
  </g>
  <g>
    <rect style="fill: #ffffff" x="274.283" y="272.664" width="92.3" height="36" rx="20" ry="20"/>
    <rect style="fill: none; fill-opacity:0; stroke-width: 2; stroke: #000000" x="274.283" y="272.664" width="92.3" height="36" rx="20" ry="20"/>
    <text font-size="12.8" style="fill: #000000;text-anchor:middle;font-family:sans-serif;font-style:normal;font-weight:normal" x="320.433" y="294.564">
      <tspan x="320.433" y="294.564">hide loader</tspan>
    </text>
  </g>
  <g>
    <rect style="fill: #ffffff" x="280.462" y="349.747" width="80" height="36" rx="20" ry="20"/>
    <rect style="fill: none; fill-opacity:0; stroke-width: 2; stroke: #000000" x="280.462" y="349.747" width="80" height="36" rx="20" ry="20"/>
    <text font-size="12.8" style="fill: #000000;text-anchor:middle;font-family:sans-serif;font-style:normal;font-weight:normal" x="320.462" y="371.647">
      <tspan x="320.462" y="371.647">callback</tspan>
    </text>
  </g>
  <g>
    <ellipse style="fill: #ffffff" cx="320.328" cy="443.253" rx="15" ry="15"/>
    <ellipse style="fill: none; fill-opacity:0; stroke-width: 2; stroke: #000000" cx="320.328" cy="443.253" rx="15" ry="15"/>
    <ellipse style="fill: #000000" cx="320.328" cy="443.253" rx="10" ry="10"/>
  </g>
  <g>
    <polyline style="fill: none; fill-opacity:0; stroke-width: 2; stroke: #000000" points="320.365,-92 320.365,-32.166 320.541,-32.166 320.541,23.1959 "/>
    <polyline style="fill: none; fill-opacity:0; stroke-width: 2; stroke: #000000" points="315.541,15.4319 320.541,25.4319 325.541,15.4319 "/>
  </g>
  <g>
    <polyline style="fill: none; fill-opacity:0; stroke-width: 2; stroke: #000000" points="320.541,67.668 320.541,88.245 320.369,88.245 320.369,104.35 "/>
    <polyline style="fill: none; fill-opacity:0; stroke-width: 2; stroke: #000000" points="315.369,96.5859 320.369,106.586 325.369,96.5859 "/>
  </g>
  <g>
    <polyline style="fill: none; fill-opacity:0; stroke-width: 2; stroke: #000000" points="320.601,-172.498 320.601,-152.249 320.365,-152.249 320.365,-136.472 "/>
    <polyline style="fill: none; fill-opacity:0; stroke-width: 2; stroke: #000000" points="315.365,-144.236 320.365,-134.236 325.365,-144.236 "/>
  </g>
  <g>
    <polyline style="fill: none; fill-opacity:0; stroke-width: 2; stroke: #000000" points="320.508,-250.071 320.508,-229.284 320.601,-229.284 320.601,-212.97 "/>
    <polyline style="fill: none; fill-opacity:0; stroke-width: 2; stroke: #000000" points="315.601,-220.734 320.601,-210.734 325.601,-220.734 "/>
  </g>
  <g>
    <polyline style="fill: none; fill-opacity:0; stroke-width: 2; stroke: #000000" points="300.365,-112 231.004,-112 231.004,-84.6462 "/>
    <polyline style="fill: none; fill-opacity:0; stroke-width: 2; stroke: #000000" points="226.004,-92.4101 231.004,-82.4101 236.004,-92.4101 "/>
  </g>
  <g>
    <polyline style="fill: none; fill-opacity:0; stroke-width: 2; stroke: #000000" points="320.433,308.664 320.433,329.205 320.462,329.205 320.462,345.275 "/>
    <polyline style="fill: none; fill-opacity:0; stroke-width: 2; stroke: #000000" points="315.462,337.511 320.462,347.511 325.462,337.511 "/>
  </g>
  <g>
    <polyline style="fill: none; fill-opacity:0; stroke-width: 2; stroke: #000000" points="320.462,385.747 320.462,406.496 320.328,406.496 320.328,422.773 "/>
    <polyline style="fill: none; fill-opacity:0; stroke-width: 2; stroke: #000000" points="315.328,415.009 320.328,425.009 325.328,415.009 "/>
  </g>
  <g>
    <polyline style="fill: none; fill-opacity:0; stroke-width: 2; stroke: #000000" points="231.004,-40.174 231.004,47.668 296.069,47.668 "/>
    <polyline style="fill: none; fill-opacity:0; stroke-width: 2; stroke: #000000" points="288.305,52.668 298.305,47.668 288.305,42.668 "/>
  </g>
  <g>
    <polyline style="fill: none; fill-opacity:0; stroke-width: 2; stroke: #000000" points="107.35,17.668 107.35,47.668 296.069,47.668 "/>
    <polyline style="fill: none; fill-opacity:0; stroke-width: 2; stroke: #000000" points="288.305,52.668 298.305,47.668 288.305,42.668 "/>
  </g>
  <g>
    <polygon style="fill: #ffffff" points="300,-656.464 320,-676.464 340,-656.464 320,-636.464 "/>
    <polygon style="fill: none; fill-opacity:0; stroke-width: 2; stroke: #000000" points="300,-656.464 320,-676.464 340,-656.464 320,-636.464 "/>
  </g>
  <text font-size="12.7998" style="fill: #000000;text-anchor:start;font-family:sans-serif;font-style:normal;font-weight:normal" x="348.996" y="-664.585">
    <tspan x="348.996" y="-664.585">is type of urlsSource</tspan>
    <tspan x="348.996" y="-648.585">Array.&lt;string&gt;?</tspan>
  </text>
  <g>
    <rect style="fill: #ffffff" x="392.874" y="-769.17" width="51.75" height="38"/>
    <rect style="fill: none; fill-opacity:0; stroke-width: 2; stroke: #000000" x="392.874" y="-769.17" width="51.75" height="38"/>
    <text font-size="12.7998" style="fill: #000000;text-anchor:middle;font-family:sans-serif;font-style:normal;font-weight:normal" x="418.749" y="-746.27">
      <tspan x="418.749" y="-746.27">start</tspan>
    </text>
  </g>
  <g>
    <rect style="fill: #ffffff" x="20" y="-231.004" width="169.35" height="100" rx="20" ry="20"/>
    <rect style="fill: none; fill-opacity:0; stroke-width: 2; stroke: #000000" x="20" y="-231.004" width="169.35" height="100" rx="20" ry="20"/>
    <text font-size="12.7998" style="fill: #000000;text-anchor:middle;font-family:sans-serif;font-style:normal;font-weight:normal" x="104.675" y="-209.104">
      <tspan x="104.675" y="-209.104">asynchronous signal:</tspan>
      <tspan x="104.675" y="-193.104">activateCondition state</tspan>
      <tspan x="104.675" y="-177.104">changed to true,</tspan>
      <tspan x="104.675" y="-161.104">so external css ruleset</tspan>
      <tspan x="104.675" y="-145.104">was applied to DOM</tspan>
    </text>
  </g>
  <g>
    <rect style="fill: #ffffff" x="254.498" y="-900" width="121.2" height="38"/>
    <rect style="fill: none; fill-opacity:0; stroke-width: 2; stroke: #000000" x="254.498" y="-900" width="121.2" height="38"/>
    <text font-size="12.7998" style="fill: #000000;text-anchor:middle;font-family:sans-serif;font-style:normal;font-weight:normal" x="315.098" y="-877.1">
      <tspan x="315.098" y="-877.1">create instance</tspan>
    </text>
  </g>
  <g>
    <polyline style="fill: none; fill-opacity:0; stroke-width: 2; stroke: #000000" points="320,-636.464 320,-576.503 320.003,-576.503 320.003,-521.014 "/>
    <polyline style="fill: none; fill-opacity:0; stroke-width: 2; stroke: #000000" points="315.003,-528.778 320.003,-518.778 325.003,-528.778 "/>
  </g>
  <g>
    <rect style="fill: #ffffff" x="160.127" y="-627.546" width="143.1" height="70"/>
    <rect style="fill: none; fill-opacity:0; stroke-width: 2; stroke: #000000" x="160.127" y="-627.546" width="143.1" height="70"/>
    <text font-size="12.7998" style="fill: #000000;text-anchor:middle;font-family:sans-serif;font-style:normal;font-weight:normal" x="231.677" y="-604.646">
      <tspan x="231.677" y="-604.646">extract URLs</tspan>
      <tspan x="231.677" y="-588.646">from dataset tags</tspan>
      <tspan x="231.677" y="-572.646">in urlsSource Node</tspan>
    </text>
  </g>
  <g>
    <polyline style="fill: none; fill-opacity:0; stroke-width: 2; stroke: #000000" points="300,-656.464 270,-656.464 270,-656.307 231.677,-656.307 231.677,-632.018 "/>
    <polyline style="fill: none; fill-opacity:0; stroke-width: 2; stroke: #000000" points="226.677,-639.782 231.677,-629.782 236.677,-639.782 "/>
  </g>
  <g>
    <polyline style="fill: none; fill-opacity:0; stroke-width: 2; stroke: #000000" points="231.677,-557.546 231.677,-537.044 320.003,-537.044 320.003,-521.014 "/>
    <polyline style="fill: none; fill-opacity:0; stroke-width: 2; stroke: #000000" points="315.003,-528.778 320.003,-518.778 325.003,-528.778 "/>
  </g>
  <g>
    <rect style="fill: #ffffff" x="239.083" y="-440" width="161.6" height="54"/>
    <rect style="fill: none; fill-opacity:0; stroke-width: 2; stroke: #000000" x="239.083" y="-440" width="161.6" height="54"/>
    <text font-size="12.7998" style="fill: #000000;text-anchor:middle;font-family:sans-serif;font-style:normal;font-weight:normal" x="319.883" y="-417.1">
      <tspan x="319.883" y="-417.1">get sizes of resources</tspan>
      <tspan x="319.883" y="-401.1">to download</tspan>
    </text>
  </g>
  <g>
    <polyline style="fill: none; fill-opacity:0; stroke-width: 2; stroke: #000000" points="320.003,-480.542 320.003,-460.271 319.883,-460.271 319.883,-444.472 "/>
    <polyline style="fill: none; fill-opacity:0; stroke-width: 2; stroke: #000000" points="314.883,-452.236 319.883,-442.236 324.883,-452.236 "/>
  </g>
  <text font-size="12.7998" style="fill: #000000;text-anchor:start;font-family:sans-serif;font-style:normal;font-weight:normal" x="324.585" y="-627.336">
    <tspan x="324.585" y="-627.336">yes</tspan>
  </text>
  <text font-size="12.7998" style="fill: #000000;text-anchor:start;font-family:sans-serif;font-style:normal;font-weight:normal" x="285.502" y="-665.502">
    <tspan x="285.502" y="-665.502">no</tspan>
  </text>
  <rect style="fill: #000000" x="20" y="-340" width="480" height="8"/>
  <g>
    <polyline style="fill: none; fill-opacity:0; stroke-width: 2; stroke: #000000" points="319.883,-386 319.883,-363 320,-363 320,-344.472 "/>
    <polyline style="fill: none; fill-opacity:0; stroke-width: 2; stroke: #000000" points="315,-352.236 320,-342.236 325,-352.236 "/>
  </g>
  <g>
    <polyline style="fill: none; fill-opacity:0; stroke-width: 2; stroke: #000000" points="320.707,-337.597 320.707,-311.834 320.508,-311.834 320.508,-290.543 "/>
    <polyline style="fill: none; fill-opacity:0; stroke-width: 2; stroke: #000000" points="315.508,-298.307 320.508,-288.307 325.508,-298.307 "/>
  </g>
  <g>
    <polyline style="fill: none; fill-opacity:0; stroke-width: 2; stroke: #000000" points="189.35,-181.004 231.004,-181.004 231.004,-84.6462 "/>
    <polyline style="fill: none; fill-opacity:0; stroke-width: 2; stroke: #000000" points="226.004,-92.4101 231.004,-82.4101 236.004,-92.4101 "/>
  </g>
  <g>
    <rect style="fill: #ffffff" x="15.725" y="-36.332" width="183.25" height="54"/>
    <rect style="fill: none; fill-opacity:0; stroke-width: 2; stroke: #000000" x="15.725" y="-36.332" width="183.25" height="54"/>
    <text font-size="12.7998" style="fill: #000000;text-anchor:middle;font-family:sans-serif;font-style:normal;font-weight:normal" x="107.35" y="-13.432">
      <tspan x="107.35" y="-13.432">activate resource and</tspan>
      <tspan x="107.35" y="2.568">remove dataset attribute</tspan>
    </text>
  </g>
  <rect style="fill: #000000" x="20" y="236" width="480" height="8"/>
  <g>
    <polyline style="fill: none; fill-opacity:0; stroke-width: 2; stroke: #000000" points="320.354,192.333 320.354,202.333 320.354,226.333 320.354,231.861 "/>
    <polyline style="fill: none; fill-opacity:0; stroke-width: 2; stroke: #000000" points="315.354,224.097 320.354,234.097 325.354,224.097 "/>
  </g>
  <g>
    <polyline style="fill: none; fill-opacity:0; stroke-width: 2; stroke: #000000" points="320.369,192.822 320.369,232.743 320.433,232.743 320.433,268.192 "/>
    <polyline style="fill: none; fill-opacity:0; stroke-width: 2; stroke: #000000" points="315.433,260.428 320.433,270.428 325.433,260.428 "/>
  </g>
</svg>
